{"asset":{"version":"2.0","generator":"A3 Slavia asset pipeline"},"scene":0,"scenes":[{"nodes":[0]}],"nodes":[{"mesh":0,"name":"KD_Slavia"}],"meshes":[{"name":"KD Slavia low-poly shell","primitives":[{"attributes":{"POSITION":0},"indices":1,"material":0}]}],"materials":[{"name":"Slavia warm facade","pbrMetallicRoughness":{"baseColorFactor":[0.72,0.55,0.42,1],"metallicFactor":0,"roughnessFactor":0.9}}],"buffers":[{"byteLength":168,"uri":"data:application/octet-stream;base64,"}],"bufferViews":[{"buffer":0,"byteOffset":0,"byteLength":96,"target":34962},{"buffer":0,"byteOffset":96,"byteLength":72,"target":34963}],"accessors":[{"bufferView":0,"componentType":5126,"count":8,"type":"VEC3","min":[-6,0,-2.5],"max":[6,5,2.5]},{"bufferView":1,"componentType":5123,"count":36,"type":"SCALAR","min":[0],"max":[7]}]}